<mxfile host="app.diagrams.net" modified="2022-05-25T02:10:16.704Z" agent="5.0 (Windows NT 10.0; Win64; x64) AppleWebKit/537.36 (KHTML, like Gecko) Chrome/101.0.4951.67 Safari/537.36" etag="Wnz85QUlQ1mGRlW_Q5o3" version="16.6.4" type="github" pages="2">
  <diagram id="Kc7WcOj5Z0cgnOPFfwzi" name="FlyVehicle">
    <mxGraphModel dx="2062" dy="1122" grid="1" gridSize="10" guides="1" tooltips="1" connect="1" arrows="1" fold="1" page="1" pageScale="1" pageWidth="827" pageHeight="1169" math="0" shadow="0">
      <root>
        <mxCell id="0" />
        <mxCell id="1" parent="0" />
        <mxCell id="vImqBgoLkB7zKIw3xJ7u-23" style="edgeStyle=orthogonalEdgeStyle;rounded=0;orthogonalLoop=1;jettySize=auto;html=1;" parent="1" source="vImqBgoLkB7zKIw3xJ7u-5" target="vImqBgoLkB7zKIw3xJ7u-21" edge="1">
          <mxGeometry relative="1" as="geometry" />
        </mxCell>
        <mxCell id="vImqBgoLkB7zKIw3xJ7u-5" value="LocalMovement&lt;br&gt;移动逻辑处理" style="rounded=1;whiteSpace=wrap;html=1;" parent="1" vertex="1">
          <mxGeometry x="100" y="585" width="120" height="60" as="geometry" />
        </mxCell>
        <mxCell id="vImqBgoLkB7zKIw3xJ7u-6" value="LocalRotation&lt;br&gt;旋转逻辑处理" style="rounded=1;whiteSpace=wrap;html=1;" parent="1" vertex="1">
          <mxGeometry x="230" y="585" width="120" height="60" as="geometry" />
        </mxCell>
        <mxCell id="vImqBgoLkB7zKIw3xJ7u-12" style="edgeStyle=orthogonalEdgeStyle;rounded=0;orthogonalLoop=1;jettySize=auto;html=1;exitX=0.5;exitY=1;exitDx=0;exitDy=0;" parent="1" source="vImqBgoLkB7zKIw3xJ7u-7" target="vImqBgoLkB7zKIw3xJ7u-5" edge="1">
          <mxGeometry relative="1" as="geometry" />
        </mxCell>
        <mxCell id="vImqBgoLkB7zKIw3xJ7u-13" style="edgeStyle=orthogonalEdgeStyle;rounded=0;orthogonalLoop=1;jettySize=auto;html=1;" parent="1" source="vImqBgoLkB7zKIw3xJ7u-7" target="vImqBgoLkB7zKIw3xJ7u-6" edge="1">
          <mxGeometry relative="1" as="geometry" />
        </mxCell>
        <mxCell id="vImqBgoLkB7zKIw3xJ7u-14" style="edgeStyle=orthogonalEdgeStyle;rounded=0;orthogonalLoop=1;jettySize=auto;html=1;" parent="1" source="vImqBgoLkB7zKIw3xJ7u-7" target="vImqBgoLkB7zKIw3xJ7u-8" edge="1">
          <mxGeometry relative="1" as="geometry" />
        </mxCell>
        <mxCell id="vImqBgoLkB7zKIw3xJ7u-7" value="UpdateInput&lt;br&gt;更新输入变化" style="rounded=1;whiteSpace=wrap;html=1;" parent="1" vertex="1">
          <mxGeometry x="230" y="470" width="120" height="60" as="geometry" />
        </mxCell>
        <mxCell id="vImqBgoLkB7zKIw3xJ7u-8" value="UpdateAnimator&lt;br&gt;更新动画表现" style="rounded=1;whiteSpace=wrap;html=1;" parent="1" vertex="1">
          <mxGeometry x="400" y="585" width="120" height="60" as="geometry" />
        </mxCell>
        <mxCell id="vImqBgoLkB7zKIw3xJ7u-11" style="edgeStyle=orthogonalEdgeStyle;rounded=0;orthogonalLoop=1;jettySize=auto;html=1;entryX=0.5;entryY=0;entryDx=0;entryDy=0;startArrow=none;" parent="1" source="vImqBgoLkB7zKIw3xJ7u-18" target="vImqBgoLkB7zKIw3xJ7u-7" edge="1">
          <mxGeometry relative="1" as="geometry" />
        </mxCell>
        <mxCell id="vImqBgoLkB7zKIw3xJ7u-15" style="edgeStyle=orthogonalEdgeStyle;rounded=0;orthogonalLoop=1;jettySize=auto;html=1;startArrow=none;" parent="1" source="vImqBgoLkB7zKIw3xJ7u-19" target="vImqBgoLkB7zKIw3xJ7u-10" edge="1">
          <mxGeometry relative="1" as="geometry" />
        </mxCell>
        <mxCell id="vImqBgoLkB7zKIw3xJ7u-9" value="FlyVehicle&lt;br&gt;飞行载具基类&lt;br&gt;实现基本控制" style="rounded=0;whiteSpace=wrap;html=1;" parent="1" vertex="1">
          <mxGeometry x="400" y="340" width="120" height="60" as="geometry" />
        </mxCell>
        <mxCell id="vImqBgoLkB7zKIw3xJ7u-16" style="edgeStyle=orthogonalEdgeStyle;rounded=0;orthogonalLoop=1;jettySize=auto;html=1;" parent="1" source="vImqBgoLkB7zKIw3xJ7u-10" target="vImqBgoLkB7zKIw3xJ7u-8" edge="1">
          <mxGeometry relative="1" as="geometry" />
        </mxCell>
        <mxCell id="vImqBgoLkB7zKIw3xJ7u-10" value="SyncInput&lt;br&gt;同步输入变化" style="rounded=1;whiteSpace=wrap;html=1;" parent="1" vertex="1">
          <mxGeometry x="550" y="470" width="120" height="60" as="geometry" />
        </mxCell>
        <mxCell id="vImqBgoLkB7zKIw3xJ7u-19" value="其他客户端" style="text;html=1;align=center;verticalAlign=middle;resizable=0;points=[];autosize=1;strokeColor=none;fillColor=none;" parent="1" vertex="1">
          <mxGeometry x="570" y="410" width="80" height="20" as="geometry" />
        </mxCell>
        <mxCell id="vImqBgoLkB7zKIw3xJ7u-20" value="" style="edgeStyle=orthogonalEdgeStyle;rounded=0;orthogonalLoop=1;jettySize=auto;html=1;endArrow=none;" parent="1" source="vImqBgoLkB7zKIw3xJ7u-9" target="vImqBgoLkB7zKIw3xJ7u-19" edge="1">
          <mxGeometry relative="1" as="geometry">
            <mxPoint x="520" y="370" as="sourcePoint" />
            <mxPoint x="610" y="470" as="targetPoint" />
          </mxGeometry>
        </mxCell>
        <mxCell id="vImqBgoLkB7zKIw3xJ7u-21" value="UpdateMaxSpeed&lt;br&gt;根据俯仰角度&lt;br&gt;限制最大速度" style="rounded=1;whiteSpace=wrap;html=1;" parent="1" vertex="1">
          <mxGeometry x="100" y="710" width="120" height="60" as="geometry" />
        </mxCell>
        <mxCell id="vImqBgoLkB7zKIw3xJ7u-31" style="edgeStyle=orthogonalEdgeStyle;rounded=0;orthogonalLoop=1;jettySize=auto;html=1;" parent="1" source="vImqBgoLkB7zKIw3xJ7u-24" target="vImqBgoLkB7zKIw3xJ7u-28" edge="1">
          <mxGeometry relative="1" as="geometry" />
        </mxCell>
        <mxCell id="vImqBgoLkB7zKIw3xJ7u-32" style="edgeStyle=orthogonalEdgeStyle;rounded=0;orthogonalLoop=1;jettySize=auto;html=1;" parent="1" source="vImqBgoLkB7zKIw3xJ7u-24" target="vImqBgoLkB7zKIw3xJ7u-29" edge="1">
          <mxGeometry relative="1" as="geometry" />
        </mxCell>
        <mxCell id="vImqBgoLkB7zKIw3xJ7u-33" style="edgeStyle=orthogonalEdgeStyle;rounded=0;orthogonalLoop=1;jettySize=auto;html=1;" parent="1" source="vImqBgoLkB7zKIw3xJ7u-24" target="vImqBgoLkB7zKIw3xJ7u-30" edge="1">
          <mxGeometry relative="1" as="geometry" />
        </mxCell>
        <mxCell id="vImqBgoLkB7zKIw3xJ7u-24" value="Peterosaur&lt;br&gt;飘飘龙具体类" style="rounded=0;whiteSpace=wrap;html=1;" parent="1" vertex="1">
          <mxGeometry x="950" y="340" width="120" height="60" as="geometry" />
        </mxCell>
        <mxCell id="vImqBgoLkB7zKIw3xJ7u-28" value="UpdateAnimatorIK&lt;br&gt;控制动画 IK" style="rounded=1;whiteSpace=wrap;html=1;" parent="1" vertex="1">
          <mxGeometry x="770" y="470" width="120" height="60" as="geometry" />
        </mxCell>
        <mxCell id="vImqBgoLkB7zKIw3xJ7u-29" value="UpdateCameraShake&lt;br&gt;控制相机抖动" style="rounded=1;whiteSpace=wrap;html=1;" parent="1" vertex="1">
          <mxGeometry x="950" y="470" width="120" height="60" as="geometry" />
        </mxCell>
        <mxCell id="vImqBgoLkB7zKIw3xJ7u-30" value="UpdateSound&lt;br&gt;控制音效播放" style="rounded=1;whiteSpace=wrap;html=1;" parent="1" vertex="1">
          <mxGeometry x="1130" y="470" width="120" height="60" as="geometry" />
        </mxCell>
        <mxCell id="vImqBgoLkB7zKIw3xJ7u-18" value="本地客户端" style="text;html=1;align=center;verticalAlign=middle;resizable=0;points=[];autosize=1;strokeColor=none;fillColor=none;" parent="1" vertex="1">
          <mxGeometry x="250" y="410" width="80" height="20" as="geometry" />
        </mxCell>
        <mxCell id="vImqBgoLkB7zKIw3xJ7u-35" value="" style="edgeStyle=orthogonalEdgeStyle;rounded=0;orthogonalLoop=1;jettySize=auto;html=1;entryX=0.5;entryY=0;entryDx=0;entryDy=0;endArrow=none;" parent="1" source="vImqBgoLkB7zKIw3xJ7u-9" target="vImqBgoLkB7zKIw3xJ7u-18" edge="1">
          <mxGeometry relative="1" as="geometry">
            <mxPoint x="400" y="370" as="sourcePoint" />
            <mxPoint x="290" y="470" as="targetPoint" />
          </mxGeometry>
        </mxCell>
      </root>
    </mxGraphModel>
  </diagram>
  <diagram id="tCs4pXYg7gEUzEt1MfrE" name="WeaponControlMulti">
    <mxGraphModel dx="2062" dy="1066" grid="1" gridSize="10" guides="1" tooltips="1" connect="1" arrows="1" fold="1" page="1" pageScale="1" pageWidth="827" pageHeight="1169" math="0" shadow="0">
      <root>
        <mxCell id="3UghzsiOu88dLpHz7Syi-0" />
        <mxCell id="3UghzsiOu88dLpHz7Syi-1" parent="3UghzsiOu88dLpHz7Syi-0" />
        <mxCell id="RnvEfptU9mCJFxBSJEWd-0" value="武器控制基类&lt;br&gt;WeaponControl" style="rounded=0;whiteSpace=wrap;html=1;" vertex="1" parent="3UghzsiOu88dLpHz7Syi-1">
          <mxGeometry x="370" y="250" width="120" height="60" as="geometry" />
        </mxCell>
        <mxCell id="RnvEfptU9mCJFxBSJEWd-3" style="edgeStyle=orthogonalEdgeStyle;rounded=0;orthogonalLoop=1;jettySize=auto;html=1;endArrow=block;endFill=0;" edge="1" parent="3UghzsiOu88dLpHz7Syi-1" source="RnvEfptU9mCJFxBSJEWd-1" target="RnvEfptU9mCJFxBSJEWd-0">
          <mxGeometry relative="1" as="geometry" />
        </mxCell>
        <mxCell id="kXpW1Hgj8wubU0XOVZeL-2" style="edgeStyle=orthogonalEdgeStyle;rounded=0;orthogonalLoop=1;jettySize=auto;html=1;endArrow=classic;endFill=1;" edge="1" parent="3UghzsiOu88dLpHz7Syi-1" source="RnvEfptU9mCJFxBSJEWd-1" target="RnvEfptU9mCJFxBSJEWd-2">
          <mxGeometry relative="1" as="geometry" />
        </mxCell>
        <mxCell id="kXpW1Hgj8wubU0XOVZeL-3" style="edgeStyle=orthogonalEdgeStyle;rounded=0;orthogonalLoop=1;jettySize=auto;html=1;endArrow=classic;endFill=1;" edge="1" parent="3UghzsiOu88dLpHz7Syi-1" source="RnvEfptU9mCJFxBSJEWd-1" target="kXpW1Hgj8wubU0XOVZeL-0">
          <mxGeometry relative="1" as="geometry" />
        </mxCell>
        <mxCell id="kXpW1Hgj8wubU0XOVZeL-18" style="edgeStyle=orthogonalEdgeStyle;rounded=0;orthogonalLoop=1;jettySize=auto;html=1;endArrow=classic;endFill=1;" edge="1" parent="3UghzsiOu88dLpHz7Syi-1" source="RnvEfptU9mCJFxBSJEWd-1" target="kXpW1Hgj8wubU0XOVZeL-17">
          <mxGeometry relative="1" as="geometry" />
        </mxCell>
        <mxCell id="RnvEfptU9mCJFxBSJEWd-1" value="双枪武器控制类&lt;br&gt;WeaponControlMulti" style="rounded=0;whiteSpace=wrap;html=1;" vertex="1" parent="3UghzsiOu88dLpHz7Syi-1">
          <mxGeometry x="370" y="360" width="120" height="60" as="geometry" />
        </mxCell>
        <mxCell id="kXpW1Hgj8wubU0XOVZeL-6" style="edgeStyle=orthogonalEdgeStyle;rounded=0;orthogonalLoop=1;jettySize=auto;html=1;endArrow=classic;endFill=1;" edge="1" parent="3UghzsiOu88dLpHz7Syi-1" source="RnvEfptU9mCJFxBSJEWd-2" target="kXpW1Hgj8wubU0XOVZeL-5">
          <mxGeometry relative="1" as="geometry" />
        </mxCell>
        <mxCell id="kXpW1Hgj8wubU0XOVZeL-20" style="edgeStyle=orthogonalEdgeStyle;rounded=0;orthogonalLoop=1;jettySize=auto;html=1;endArrow=classic;endFill=1;" edge="1" parent="3UghzsiOu88dLpHz7Syi-1" target="kXpW1Hgj8wubU0XOVZeL-8">
          <mxGeometry relative="1" as="geometry">
            <mxPoint x="280" y="535" as="sourcePoint" />
            <mxPoint x="505" y="625" as="targetPoint" />
            <Array as="points">
              <mxPoint x="280" y="575" />
              <mxPoint x="505" y="575" />
            </Array>
          </mxGeometry>
        </mxCell>
        <mxCell id="kXpW1Hgj8wubU0XOVZeL-24" style="edgeStyle=orthogonalEdgeStyle;rounded=0;orthogonalLoop=1;jettySize=auto;html=1;endArrow=classic;endFill=1;" edge="1" parent="3UghzsiOu88dLpHz7Syi-1" source="RnvEfptU9mCJFxBSJEWd-2" target="kXpW1Hgj8wubU0XOVZeL-22">
          <mxGeometry relative="1" as="geometry" />
        </mxCell>
        <mxCell id="RnvEfptU9mCJFxBSJEWd-2" value="负责左手武器表现&lt;br&gt;WeaponSkinMulti" style="rounded=0;whiteSpace=wrap;html=1;" vertex="1" parent="3UghzsiOu88dLpHz7Syi-1">
          <mxGeometry x="220" y="470" width="120" height="60" as="geometry" />
        </mxCell>
        <mxCell id="kXpW1Hgj8wubU0XOVZeL-9" style="edgeStyle=orthogonalEdgeStyle;rounded=0;orthogonalLoop=1;jettySize=auto;html=1;endArrow=classic;endFill=1;" edge="1" parent="3UghzsiOu88dLpHz7Syi-1" source="kXpW1Hgj8wubU0XOVZeL-0" target="kXpW1Hgj8wubU0XOVZeL-8">
          <mxGeometry relative="1" as="geometry" />
        </mxCell>
        <mxCell id="kXpW1Hgj8wubU0XOVZeL-21" style="edgeStyle=orthogonalEdgeStyle;rounded=0;orthogonalLoop=1;jettySize=auto;html=1;endArrow=classic;endFill=1;" edge="1" parent="3UghzsiOu88dLpHz7Syi-1" target="kXpW1Hgj8wubU0XOVZeL-5">
          <mxGeometry relative="1" as="geometry">
            <mxPoint x="580" y="535" as="sourcePoint" />
            <mxPoint x="355" y="625" as="targetPoint" />
            <Array as="points">
              <mxPoint x="580" y="575" />
              <mxPoint x="355" y="575" />
            </Array>
          </mxGeometry>
        </mxCell>
        <mxCell id="kXpW1Hgj8wubU0XOVZeL-25" style="edgeStyle=orthogonalEdgeStyle;rounded=0;orthogonalLoop=1;jettySize=auto;html=1;endArrow=classic;endFill=1;" edge="1" parent="3UghzsiOu88dLpHz7Syi-1" source="kXpW1Hgj8wubU0XOVZeL-0" target="kXpW1Hgj8wubU0XOVZeL-23">
          <mxGeometry relative="1" as="geometry" />
        </mxCell>
        <mxCell id="kXpW1Hgj8wubU0XOVZeL-0" value="负责右手武器表现&lt;br&gt;WeaponSkinMulti" style="rounded=0;whiteSpace=wrap;html=1;" vertex="1" parent="3UghzsiOu88dLpHz7Syi-1">
          <mxGeometry x="520" y="470" width="120" height="60" as="geometry" />
        </mxCell>
        <mxCell id="kXpW1Hgj8wubU0XOVZeL-5" value="播放特效&lt;br&gt;PlayEffect" style="rounded=0;whiteSpace=wrap;html=1;" vertex="1" parent="3UghzsiOu88dLpHz7Syi-1">
          <mxGeometry x="295" y="620" width="120" height="60" as="geometry" />
        </mxCell>
        <mxCell id="kXpW1Hgj8wubU0XOVZeL-8" value="播放动作&lt;br&gt;PlayAnimation" style="rounded=0;whiteSpace=wrap;html=1;" vertex="1" parent="3UghzsiOu88dLpHz7Syi-1">
          <mxGeometry x="445" y="620" width="120" height="60" as="geometry" />
        </mxCell>
        <mxCell id="kXpW1Hgj8wubU0XOVZeL-17" value="开火逻辑&lt;br&gt;Fire" style="rounded=0;whiteSpace=wrap;html=1;" vertex="1" parent="3UghzsiOu88dLpHz7Syi-1">
          <mxGeometry x="370" y="470" width="120" height="60" as="geometry" />
        </mxCell>
        <mxCell id="kXpW1Hgj8wubU0XOVZeL-22" value="开镜&lt;br&gt;ZoomIn" style="rounded=0;whiteSpace=wrap;html=1;" vertex="1" parent="3UghzsiOu88dLpHz7Syi-1">
          <mxGeometry x="150" y="620" width="120" height="60" as="geometry" />
        </mxCell>
        <mxCell id="kXpW1Hgj8wubU0XOVZeL-23" value="机瞄&lt;br&gt;ZoomOut" style="rounded=0;whiteSpace=wrap;html=1;" vertex="1" parent="3UghzsiOu88dLpHz7Syi-1">
          <mxGeometry x="600" y="620" width="120" height="60" as="geometry" />
        </mxCell>
      </root>
    </mxGraphModel>
  </diagram>
</mxfile>
